<svg width="97" height="97" viewBox="0 0 97 97" fill="none" xmlns="http://www.w3.org/2000/svg">
<rect width="96.4666" height="96.4666" rx="48.2333" fill="#F5B300"/>
<path d="M31.2865 22.1774C33.0578 22.6605 34.8292 22.9825 36.6005 23.4656C38.3718 23.9487 40.1431 24.2708 41.9144 24.7539C42.3975 24.9149 42.5586 24.7539 42.7196 24.2708C43.3637 21.5333 44.0078 18.9568 44.6519 16.2193C44.813 15.7362 44.974 15.5752 45.4571 15.7362C47.0674 16.2193 48.5166 16.5414 50.1269 16.8634C50.61 17.0245 50.61 17.1855 50.449 17.5076C49.8049 20.084 49.1608 22.8215 48.5166 25.398C48.5166 25.559 48.5166 25.72 48.3556 26.0421C49.6439 26.3642 51.0931 26.6862 52.3814 27.0083C52.5424 27.0083 52.7034 26.6862 52.8644 26.5252C53.3475 24.4318 53.8306 22.4995 54.4747 20.4061C54.6358 19.762 54.7968 19.1178 54.9578 18.4737C54.9578 18.1517 55.1189 17.9906 55.4409 18.1517C57.0512 18.6348 58.6615 18.9568 60.4328 19.4399C60.5938 19.4399 60.5938 19.6009 60.7549 19.6009C60.2718 21.6943 59.7887 23.6267 59.3056 25.559C59.1446 26.3642 58.9836 27.1693 58.6615 27.9745C58.5005 28.4575 58.6615 28.6186 59.1446 28.7796C60.9159 29.5848 62.6872 30.3899 64.4586 31.195C66.0688 32.1612 67.5181 33.4495 68.6453 35.0597C70.0946 37.4752 70.2556 40.0517 69.6115 42.6281C69.1284 44.3995 68.4843 46.0097 67.196 47.298C66.2299 48.2642 64.9416 48.9083 63.6534 49.3914C63.4924 49.3914 63.3313 49.5524 63.0093 49.5524C63.6534 50.0355 64.2975 50.3575 64.9416 50.8406C66.874 52.2899 68.1622 54.0612 68.8063 56.3156C69.1284 58.0869 68.9674 60.0193 68.4843 61.7906C67.8402 64.045 67.035 65.9774 65.5858 67.7487C63.8144 69.8421 61.56 70.9693 58.9836 71.2913C55.6019 71.7744 52.3814 71.4524 49.1608 70.9693C48.6777 70.8083 48.3556 70.9693 48.1946 71.4524C47.5505 74.0289 46.9064 76.7663 46.2622 79.3428C46.1012 79.9869 46.1012 80.148 45.2961 79.8259C43.8468 79.5038 42.2365 79.0208 40.7872 78.6987C40.3042 78.5377 40.3041 78.3766 40.4652 78.0546C41.1093 75.3171 41.7534 72.5796 42.5586 70.0031C42.5586 69.6811 42.7196 69.52 42.3975 69.359C41.1093 69.0369 39.8211 68.7149 38.3718 68.3928C38.0497 69.8421 37.5667 71.2914 37.2446 72.7406C36.9225 74.1899 36.4394 75.6391 36.1174 77.0884C35.9564 77.4105 35.9564 77.5715 35.4733 77.4105C33.863 76.9274 32.2527 76.6053 30.6424 76.2833C30.1593 76.1222 30.1593 75.9612 30.3203 75.6391C30.9644 72.9016 31.6086 70.1641 32.4137 67.5877C32.4137 67.4266 32.5747 67.2656 32.5747 66.9436C28.8711 65.9774 25.1674 65.0112 21.3027 64.045C21.6247 63.4009 21.7858 62.9178 22.1078 62.2737C22.752 60.8244 23.3961 59.3752 23.8792 58.0869C24.0402 57.6039 24.2012 57.6039 24.6843 57.6039C25.8115 57.9259 27.0997 58.248 28.227 58.409C29.5152 58.7311 30.4814 58.0869 30.6424 56.9597C32.7358 48.7472 34.8292 40.5347 36.7615 32.1612C37.0836 30.873 36.2784 29.4237 34.8292 28.9406C33.3799 28.4575 31.9306 28.1355 30.6424 27.8134C30.3203 27.8134 30.1593 27.6524 30.3203 27.3303C30.8034 25.559 31.2865 23.6267 31.7696 21.8553C31.1255 22.3384 31.1255 22.3384 31.2865 22.1774ZM39.499 61.9516C39.66 61.9516 39.8211 62.1127 39.8211 62.1127C42.3975 62.7568 45.135 63.5619 47.8725 63.723C49.8049 63.884 51.5762 63.884 53.3475 63.2399C56.4071 62.2737 57.6953 58.248 55.924 55.6715C55.1189 54.3833 53.8306 53.5781 52.5424 52.773C49.6439 51.1627 46.2622 50.5186 43.0416 49.8745C42.5586 49.7134 42.5586 49.8745 42.3975 50.3575C42.0755 51.9678 41.5924 53.4171 41.2703 55.0274C40.6262 57.2818 40.1431 59.5362 39.499 61.9516ZM53.0255 45.5267C53.3475 45.5267 54.1527 45.3656 54.7968 45.2046C57.8563 44.5605 59.4666 41.0178 57.8563 38.2803C57.0512 36.8311 55.6019 35.8649 54.1527 35.2208C51.8983 34.2546 49.6439 33.7715 47.2284 33.1274C46.7453 32.9664 46.5843 33.1274 46.4233 33.6105C45.6181 36.9921 44.813 40.2127 43.8468 43.5943C43.6858 43.9164 43.8468 44.0774 44.1689 44.2384C44.813 44.3995 45.2961 44.5605 45.9402 44.7215C48.3556 45.0436 50.449 45.5267 53.0255 45.5267Z" fill="white"/>
</svg>
